<svg xmlns="http://www.w3.org/2000/svg" viewBox="0 0 45.8 45.77">
  <defs>
    <style>
      .cls-1 {
        fill: #fff;
      }

      .cls-2 {
        fill: #ff8946;
      }
    </style>
  </defs>
  <g id="Livello_2" data-name="Livello 2">
    <g id="Livello_1-2" data-name="Livello 1">
      <g id="Group_87" data-name="Group 87">
        <path id="Path_46" data-name="Path 46" class="cls-1" d="M38.59,6.21a22.91,22.91,0,0,1-28,36C11.61,41.11,12.69,40,13.77,39a18.46,18.46,0,1,0-3.94-3L6.69,39.09A22.91,22.91,0,0,1,38.59,6.21Z"/>
      </g>
      <g id="Group_92" data-name="Group 92">
        <path id="Path_51" data-name="Path 51" class="cls-2" d="M33,14.37c.58.78.29,1.57.15,2.36.14.58-3.92,1-7.69.89-4.21,0-10.6.17-12.48-.56-1.45-.76-.58-1.6-.73-2.4-.14-.56,3.48-1,7.4-1C24.3,13.6,31.7,13.53,33,14.37Z"/>
        <path id="Path_54" data-name="Path 54" class="cls-2" d="M33,21.37c.58.78.29,1.57.15,2.36.14.58-3.92,1-7.69.89-4.21,0-10.6.17-12.48-.56-1.45-.76-.58-1.6-.73-2.4-.14-.56,3.48-1,7.4-1C24.3,20.6,31.7,20.53,33,21.37Z"/>
        <path id="Path_55" data-name="Path 55" class="cls-2" d="M33,28.37c.58.78.29,1.57.15,2.36.14.58-3.92,1-7.69.89-4.21,0-10.6.17-12.48-.56-1.45-.76-.58-1.6-.73-2.4-.14-.56,3.48-1,7.4-1C24.3,27.6,31.7,27.53,33,28.37Z"/>
      </g>
    </g>
  </g>
</svg>
