<svg id="burger_menu" xmlns="http://www.w3.org/2000/svg" width="40.667" height="40.741" viewBox="0 0 40.667 40.741">
  <path id="Tracciato_155" data-name="Tracciato 155" d="M87.015,116.746a20.348,20.348,0,0,0-34.63,9.289,20.531,20.531,0,0,0,2.654,15.629c.958-.94,1.917-1.9,2.875-2.857a16.417,16.417,0,1,1,28.438.166,16.418,16.418,0,0,1-18.283,7.63,16.428,16.428,0,0,1-7.5-4.294l-2.783,2.783a20.362,20.362,0,0,0,29.23-28.346Z" transform="translate(-51.85 -110.316)" fill="#0a3557"/>
  <rect id="Rettangolo_22" data-name="Rettangolo 22" width="19" height="6" rx="2" transform="translate(10.667 9.571)" fill="#ff8946"/>
  <rect id="Rettangolo_23" data-name="Rettangolo 23" width="19" height="6" rx="2" transform="translate(10.667 17.571)" fill="#ff8946"/>
  <rect id="Rettangolo_24" data-name="Rettangolo 24" width="19" height="6" rx="2" transform="translate(10.667 25.571)" fill="#ff8946"/>
</svg>
